<svg height="142.73" viewBox="0 0 792.03 142.73" width="792.03" xmlns="http://www.w3.org/2000/svg" xmlns:xlink="http://www.w3.org/1999/xlink"><linearGradient id="b" gradientTransform="matrix(1 0 0 -1 0 143.15)" gradientUnits="userSpaceOnUse" x1="695.17" x2="695.78" y1="141.46" y2="1.58"><stop offset="0" stop-color="#2b205b"/><stop offset=".05" stop-color="#2c215f"/><stop offset=".81" stop-color="#352e92"/></linearGradient><linearGradient id="a" gradientTransform="matrix(1 0 0 -1 0 143.15)" gradientUnits="userSpaceOnUse" x1="733.14" x2="733.14" y1="140.62" y2="-10.91"><stop offset="0" stop-color="#6c60ec"/><stop offset=".2" stop-color="#695de7"/><stop offset=".42" stop-color="#6156da"/><stop offset=".64" stop-color="#544ac4"/><stop offset=".88" stop-color="#4139a5"/><stop offset="1" stop-color="#352e92"/></linearGradient><linearGradient id="c" x1="738.48" x2="738.48" xlink:href="#a" y1="140.62" y2="-10.91"/><linearGradient id="d" x1="150.02" x2="200.85" xlink:href="#b" y1="141.5" y2="4.14"/><linearGradient id="e" x1="239.56" x2="292.02" xlink:href="#b" y1="138.68" y2="-1.92"/><linearGradient id="f" x1="220.3" x2="220.3" xlink:href="#a" y1="140.62" y2="-10.91"/><linearGradient id="g" x1="309.04" x2="309.04" xlink:href="#a" y1="140.62" y2="-10.91"/><linearGradient id="h" x1="58.93" x2="118.08" xlink:href="#b" y1="141.71" y2=".08"/><linearGradient id="i" x1="36.47" x2="36.47" xlink:href="#a" y1="140.62" y2="-10.91"/><linearGradient id="j" x1="62.24" x2="62.24" xlink:href="#a" y1="140.62" y2="-10.91"/><linearGradient id="k" x1="418.72" x2="477.01" xlink:href="#b" y1="141.37" y2="2.72"/><linearGradient id="l" x1="396.29" x2="396.29" xlink:href="#a" y1="140.62" y2="-10.91"/><linearGradient id="m" x1="422.08" x2="422.08" xlink:href="#a" y1="140.62" y2="-10.91"/><linearGradient id="n" x1="559.4" x2="633.02" xlink:href="#b" y1="88.11" y2="4.67"/><linearGradient id="o" x1="541.93" x2="541.93" xlink:href="#a" y1="140.62" y2="-10.91"/><linearGradient id="p" x1="582.62" x2="582.62" xlink:href="#a" y1="140.62" y2="-10.91"/><path d="M695.48 142.57a10.56 10.56 0 0 1-10.56-10.57v-120.13a10.56 10.56 0 1 1 21.12 0v120.13a10.56 10.56 0 0 1-10.56 10.57z" fill="url(#b)"/><path d="M770.8 82.51h-75.32a10.56 10.56 0 1 1 0-21.12h75.32a10.56 10.56 0 0 1 0 21.12z" fill="url(#a)"/><path d="M695.48 22.43a10.56 10.56 0 1 1 0-21.12l86-.15a10.56 10.56 0 0 1 0 21.12l-86.06.15zM695.48 142.73a10.56 10.56 0 1 1 0-21.12l86-.14a10.56 10.56 0 0 1 0 21.12l-86.06.14z" fill="url(#c)"/><path d="M198.17 142.46a10.56 10.56 0 0 1-9.91-6.91l-44.35-120.16a10.56 10.56 0 0 1 19.81-7.31l44.35 120.16a10.58 10.58 0 0 1-9.9 14.22z" fill="url(#d)"/><path d="M286.88 142.46a10.54 10.54 0 0 1-9.91-6.89l-44.35-120.18a10.56 10.56 0 0 1 19.81-7.31l44.35 120.16a10.57 10.57 0 0 1-9.9 14.22z" fill="url(#e)"/><path d="M198.17 142.46a10.39 10.39 0 0 1-3.66-.66 10.56 10.56 0 0 1-6.25-13.56l44.35-120.16a10.56 10.56 0 0 1 19.81 7.31l-44.35 120.18a10.57 10.57 0 0 1-9.9 6.89z" fill="url(#f)"/><path d="M286.88 142.46a10.39 10.39 0 0 1-3.66-.66 10.56 10.56 0 0 1-6.22-13.56l44.37-120.16a10.56 10.56 0 0 1 19.81 7.31l-44.4 120.18a10.57 10.57 0 0 1-9.9 6.89z" fill="url(#g)"/><path d="M114.24 142.46a10.55 10.55 0 0 1-9.7-6.39l-51.81-120.16a10.56 10.56 0 1 1 19.4-8.36l51.8 120.16a10.57 10.57 0 0 1-9.69 14.75z" fill="url(#h)"/><path d="M10.56 142.46a10.58 10.58 0 0 1-10.56-10.6 10.39 10.39 0 0 1 .86-4.15l51.81-120.14a10.56 10.56 0 0 1 19.4 8.36l-51.81 120.14a10.56 10.56 0 0 1-9.7 6.39z" fill="url(#i)"/><path d="M98.3 106.23h-72.12a10.56 10.56 0 0 1 0-21.12h72.12a10.56 10.56 0 0 1 0 21.12z" fill="url(#j)"/><path d="M474.09 142.46a10.56 10.56 0 0 1-9.72-6.39l-51.8-120.16a10.56 10.56 0 0 1 19.43-8.34l51.81 120.16a10.6 10.6 0 0 1-5.56 13.9 10.46 10.46 0 0 1-4.13.85z" fill="url(#k)"/><path d="M370.37 142.46a10.55 10.55 0 0 1-9.69-14.75l51.83-120.14a10.56 10.56 0 0 1 19.4 8.36l-51.81 120.14a10.54 10.54 0 0 1-9.73 6.39z" fill="url(#l)"/><path d="M458.14 106.23h-72.14a10.56 10.56 0 0 1 0-21.12h72.14a10.56 10.56 0 0 1 0 21.12z" fill="url(#m)"/><path d="M626.84 141.92a10.56 10.56 0 0 1-7.92-3.57l-60.32-68.17a10.56 10.56 0 0 1 15.82-14l60.32 68.17a10.57 10.57 0 0 1-7.9 17.56z" fill="url(#n)"/><path d="M541.94 142.45a10.55 10.55 0 0 1-10.57-10.55v-120.17a10.56 10.56 0 1 1 21.12 0v120.16a10.56 10.56 0 0 1-10.55 10.56z" fill="url(#o)"/><path d="M541.94 96.57a10.56 10.56 0 0 1-7.18-18.3l81.54-75.61a10.56 10.56 0 0 1 14.36 15.48l-81.54 75.61a10.47 10.47 0 0 1-7.18 2.82z" fill="url(#p)"/></svg>