<?xml version="1.0" encoding="utf-8"?>
<!-- Generator: Adobe Illustrator 19.1.0, SVG Export Plug-In . SVG Version: 6.00 Build 0)  -->
<svg version="1.1" id="Layer_1" xmlns="http://www.w3.org/2000/svg" xmlns:xlink="http://www.w3.org/1999/xlink" x="0px" y="0px"
	 viewBox="0 0 280 100.1" style="enable-background:new 0 0 280 100.1;" xml:space="preserve">
<style type="text/css">
	.st0{fill:#989898;}
</style>
<g>
	<g>
		<polygon class="st0" points="1.8,84.3 0,82.4 10.3,72.1 12.1,74 		"/>
		<polygon class="st0" points="1.8,77.7 0,75.8 10.3,65.5 12.1,67.4 		"/>
		<polygon class="st0" points="1.8,71.1 0,69.2 10.3,58.9 12.1,60.8 		"/>
		<polygon class="st0" points="1.8,64.4 0,62.6 10.3,52.2 12.1,54.1 		"/>
		<polygon class="st0" points="1.8,57.9 0,56 3.9,52 5.7,53.9 		"/>
		<polygon class="st0" points="7.6,85.1 5.8,83.2 10.3,78.7 12.1,80.6 		"/>
	</g>
	<g>
		<polygon class="st0" points="33.2,84.3 31.4,82.4 41.7,72.1 43.5,74 		"/>
		<polygon class="st0" points="33.2,77.7 31.4,75.8 41.7,65.5 43.5,67.4 		"/>
		<polygon class="st0" points="33.2,71.1 31.4,69.2 41.7,58.9 43.5,60.8 		"/>
		<polygon class="st0" points="33.2,64.4 31.4,62.6 41.7,52.2 43.5,54.1 		"/>
		<polygon class="st0" points="33.2,57.9 31.4,56 35.3,52 37.1,53.9 		"/>
		<polygon class="st0" points="39,85.1 37.2,83.2 41.7,78.7 43.5,80.6 		"/>
	</g>
	<g>
		<polygon class="st0" points="33.2,47.4 31.4,45.5 41.7,35.2 43.5,37.1 		"/>
		<polygon class="st0" points="33.2,40.8 31.4,38.9 41.7,28.6 43.5,30.5 		"/>
		<polygon class="st0" points="33.2,34.2 31.4,32.3 41.7,22 43.5,23.9 		"/>
		<polygon class="st0" points="33.2,27.5 31.4,25.6 41.7,15.3 43.5,17.2 		"/>
		<polygon class="st0" points="33.2,21 31.4,19.1 35.3,15.1 37.1,17 		"/>
		<polygon class="st0" points="39,48.1 37.2,46.3 41.7,41.8 43.5,43.7 		"/>
	</g>
	<g>
		<polygon class="st0" points="49,47.4 47.1,45.5 57.5,35.2 59.3,37.1 		"/>
		<polygon class="st0" points="49,40.8 47.1,38.9 57.5,28.6 59.3,30.5 		"/>
		<polygon class="st0" points="49,34.2 47.1,32.3 57.5,22 59.3,23.9 		"/>
		<polygon class="st0" points="49,27.5 47.1,25.6 57.5,15.3 59.3,17.2 		"/>
		<polygon class="st0" points="49,21 47.1,19.1 51.1,15.1 52.9,17 		"/>
		<polygon class="st0" points="54.8,48.1 53,46.3 57.5,41.8 59.3,43.7 		"/>
	</g>
	<g>
		<polygon class="st0" points="49,99.3 47.1,97.4 57.5,87.1 59.3,89 		"/>
		<polygon class="st0" points="49,92.7 47.1,90.8 57.5,80.4 59.3,82.3 		"/>
		<polygon class="st0" points="49,86.1 47.1,84.2 57.5,73.9 59.3,75.8 		"/>
		<polygon class="st0" points="49,79.4 47.1,77.5 57.5,67.2 59.3,69.1 		"/>
		<polygon class="st0" points="49,72.8 47.1,70.9 51.1,67 52.9,68.9 		"/>
		<polygon class="st0" points="54.8,100 53,98.1 57.5,93.7 59.3,95.5 		"/>
	</g>
	<g>
		<polygon class="st0" points="64.6,99.3 62.8,97.4 73.1,87.1 74.9,89 		"/>
		<polygon class="st0" points="64.6,92.7 62.8,90.8 73.1,80.4 74.9,82.3 		"/>
		<polygon class="st0" points="64.6,86.1 62.8,84.2 73.1,73.9 74.9,75.8 		"/>
		<polygon class="st0" points="64.6,79.4 62.8,77.5 73.1,67.2 74.9,69.1 		"/>
		<polygon class="st0" points="64.6,72.8 62.8,70.9 66.7,67 68.5,68.9 		"/>
		<polygon class="st0" points="70.4,100 68.6,98.1 73.1,93.7 74.9,95.5 		"/>
	</g>
	<polygon points="12.1,100.1 0,100.1 6.1,89 	"/>
	<polygon points="43.4,100.1 31.4,100.1 37.4,89 	"/>
	<polygon points="43.4,11.2 31.4,11.2 37.4,0 	"/>
	<g>
		<polygon points="27.8,99.9 15.7,99.9 21.8,88.8 		"/>
		<polygon points="27.8,86.4 15.7,86.4 21.8,75.3 		"/>
		<polygon points="27.8,73 15.7,73 21.8,61.9 		"/>
	</g>
	<polygon points="12.1,48.1 0,48.1 6.1,37 	"/>
	<polygon points="59.2,63.1 47.1,63.1 53.2,52 	"/>
	<polygon points="59.2,11.1 47.2,11.1 53.2,0 	"/>
	<g>
		<path d="M121.4,45.4h11.8c0.4,0,0.8-0.3,0.8-0.8v-7.2c0-0.4-0.3-0.8-0.8-0.8H99.8c-0.4,0-0.8,0.3-0.8,0.8v7.2
			c0,0.4,0.3,0.8,0.8,0.8h11.8l0,30.2c0,0.4,0.3,0.8,0.8,0.8h8.3c0.4,0,0.8-0.3,0.8-0.8L121.4,45.4z"/>
		<path d="M244,45.4h11.8c0.4,0,0.8-0.3,0.8-0.8v-7.2c0-0.4-0.3-0.8-0.8-0.8h-33.4c-0.4,0-0.8,0.3-0.8,0.8v7.2
			c0,0.4,0.3,0.8,0.8,0.8h11.8l0,30.2c0,0.4,0.3,0.8,0.8,0.8h8.3c0.4,0,0.8-0.3,0.8-0.8L244,45.4z"/>
		<path d="M174.7,75.3L174.7,75.3L158.6,37c-0.1-0.2-0.3-0.3-0.5-0.3h-8.7c-0.2,0-0.4,0.1-0.5,0.3l-16.1,38.2l-0.1,0.1
			c0,0.1-0.1,0.2-0.1,0.3c0,0.4,0.3,0.8,0.8,0.8l0.1,0l8.7,0c0.3,0,0.6-0.2,0.7-0.5l2.4-6.3h16.7l2.5,6.2l0,0.1l0,0
			c0.1,0.3,0.4,0.5,0.7,0.5l0.1,0h8.4l0.3,0c0.4,0,0.8-0.3,0.8-0.8C174.8,75.5,174.8,75.4,174.7,75.3z M148.6,61.2l5.1-13.1
			l5.1,13.1H148.6z"/>
		<path d="M216.6,76.4c0.4,0,0.8-0.3,0.8-0.8c0-0.2-0.1-0.3-0.2-0.5l0,0l-15.4-20.9l14.1-16.3l0,0c0.1-0.1,0.2-0.3,0.2-0.5
			c0-0.4-0.3-0.8-0.8-0.8l-0.1,0h0h-9.4l-0.1,0c-0.2,0-0.4,0.1-0.6,0.3l-0.1,0.1l-15.7,17.9V37.6l0-0.2c0-0.4-0.3-0.8-0.8-0.8
			l-0.2,0h-7.8l-0.4,0c-0.4,0-0.8,0.3-0.8,0.8l0,0.5l0,36.1c0,0.1,0,0.2,0.1,0.3l0.7,1.6l0,0.1c0.1,0.3,0.4,0.5,0.7,0.5l0,0h7.3
			l0.2,0c0.4,0,0.8-0.3,0.8-0.8l0-0.1v-7.1l5.6-6.5l10.8,14.2l0,0c0.1,0.2,0.4,0.3,0.6,0.3l0,0L216.6,76.4L216.6,76.4L216.6,76.4"/>
	</g>
	<g>
		<path class="st0" d="M265.1,76.4v-8.2h-2.9v-1.3h7.1v1.3h-2.9v8.2H265.1z"/>
		<path class="st0" d="M270.8,76.4v-9.5h1.7l2.9,6.9h0l2.9-6.9h1.7v9.5h-1.4v-7.2h0l-3.1,7.2h-0.3l-3.1-7.2h0v7.2H270.8z"/>
	</g>
</g>
</svg>
