<?xml version="1.0" encoding="utf-8"?>
<!-- Generator: Adobe Illustrator 23.0.1, SVG Export Plug-In . SVG Version: 6.00 Build 0)  -->
<svg version="1.1" id="Layer_1" xmlns="http://www.w3.org/2000/svg" xmlns:xlink="http://www.w3.org/1999/xlink" x="0px" y="0px"
	 viewBox="0 0 662.02 212.38" style="enable-background:new 0 0 662.02 212.38;" xml:space="preserve">
<style type="text/css">
	.st0{fill:#123262;}
	.st1{fill:#2C7DF7;}
	.st2{fill:#DCE3F0;}
	.st3{fill:#FFFFFF;}
</style>
<g>
	<g>
		<g>
			<path class="st0" d="M105.68,57.28v14.88h28.97v75.03h16.18V72.16h24.75c7.64-8.43,18.4-14.01,30.43-14.88H105.68z"/>
		</g>
		<path class="st1" d="M254.87,101.22h-16.61l-0.04-0.6c-1.08-15.07-13.76-26.87-28.88-26.87c-15.97,0-28.96,12.99-28.96,28.95
			c0,15.96,12.99,28.95,28.96,28.95c0.55,0,1.1-0.02,1.64-0.04l0.68-0.04v16.6l-0.61,0.03c-0.57,0.03-1.14,0.04-1.71,0.04
			c-25.11,0-45.54-20.43-45.54-45.54c0-11.73,4.47-22.45,11.78-30.54c7.64-8.43,18.4-14.01,30.43-14.88
			c1.1-0.08,2.21-0.12,3.33-0.12c24.37,0,44.35,19.06,45.49,43.38L254.87,101.22z"/>
		<g>
			<polygon class="st1" points="234.15,116.7 225.98,127.01 248.41,145.59 256.59,135.5 			"/>
		</g>
	</g>
	<g>
		<path class="st0" d="M308.47,98.69V66.61h-10.62V64.7h23.37v1.91h-10.62v32.08H308.47z"/>
		<path class="st0" d="M334.81,99.11c-3.09,0-5.45-0.83-7.09-2.49c-1.64-1.66-2.46-4.04-2.46-7.16v-6.88c0-3.17,0.83-5.6,2.49-7.29
			c1.66-1.68,4.03-2.53,7.12-2.53c3.06,0,5.41,0.84,7.05,2.53c1.64,1.69,2.46,4.11,2.46,7.29v6.88c0,3.12-0.82,5.5-2.46,7.16
			C340.26,98.28,337.89,99.11,334.81,99.11z M334.81,97.2c2.55,0,4.43-0.63,5.63-1.89c1.2-1.26,1.81-3.21,1.81-5.84v-6.88
			c0-2.69-0.6-4.68-1.81-5.97c-1.2-1.29-3.08-1.93-5.63-1.93c-2.55,0-4.43,0.64-5.63,1.93c-1.2,1.29-1.81,3.28-1.81,5.97v6.88
			c0,2.63,0.6,4.58,1.81,5.84C330.38,96.57,332.26,97.2,334.81,97.2z"/>
		<path class="st0" d="M362.8,99.11c-3.29,0-5.8-0.83-7.54-2.49c-1.74-1.66-2.61-4.04-2.61-7.16v-6.88c0-3.2,0.86-5.64,2.59-7.31
			c1.73-1.67,4.23-2.51,7.52-2.51c3.12,0,5.42,0.62,6.93,1.87c1.5,1.25,2.35,3.19,2.55,5.82l-2.04,0.17c-0.23-2.21-0.89-3.75-2-4.63
			c-1.11-0.88-2.93-1.32-5.48-1.32c-2.72,0-4.72,0.64-6.01,1.91c-1.29,1.27-1.93,3.27-1.93,5.99v6.88c0,2.66,0.65,4.62,1.95,5.88
			c1.3,1.26,3.33,1.89,6.08,1.89c2.58,0,4.41-0.38,5.5-1.13c1.09-0.75,1.72-2.09,1.89-4.01l2.04,0.17c-0.17,2.38-1.01,4.11-2.53,5.2
			C368.19,98.57,365.89,99.11,362.8,99.11z"/>
		<path class="st0" d="M397.04,107.18V94.44h-0.42c-0.93,1.44-2.19,2.59-3.76,3.42c-1.57,0.83-3.29,1.25-5.16,1.25
			c-2.38,0-4.25-0.86-5.61-2.57c-1.36-1.71-2.04-4.09-2.04-7.12V82.5c0-3.03,0.88-5.41,2.63-7.14c1.76-1.73,4.18-2.59,7.27-2.59
			c1.7,0,3.36,0.19,4.99,0.57c1.63,0.38,3.04,0.93,4.23,1.64v32.2H397.04z M388.34,97.2c1.7,0,3.26-0.38,4.67-1.15
			c1.42-0.76,2.76-1.94,4.04-3.53V76.21c-0.96-0.54-2.02-0.94-3.19-1.21c-1.16-0.27-2.45-0.4-3.87-0.4c-2.66,0-4.63,0.65-5.9,1.95
			c-1.28,1.3-1.91,3.31-1.91,6.03V89c0,2.8,0.5,4.87,1.51,6.2C384.69,96.54,386.24,97.2,388.34,97.2z"/>
		<path class="st0" d="M415.48,99.11c-2.44,0-4.38-0.79-5.84-2.38c-1.46-1.59-2.19-3.7-2.19-6.33V73.2h2.12v16.36
			c0,2.52,0.51,4.43,1.53,5.71c1.02,1.29,2.53,1.93,4.55,1.93c1.44,0,2.92-0.38,4.44-1.13c1.51-0.75,2.97-1.93,4.35-3.55V73.2h2.12
			v25.49h-2.12v-4.25h-0.42c-1.1,1.59-2.36,2.76-3.76,3.53C418.86,98.73,417.27,99.11,415.48,99.11z"/>
		<path class="st0" d="M453.72,93.63c-0.71,1.95-1.77,3.36-3.19,4.21c-1.42,0.85-3.44,1.27-6.07,1.27c-3.03,0-5.39-0.81-7.07-2.44
			c-1.68-1.63-2.53-4.04-2.53-7.24v-6.84c0-3.29,0.88-5.74,2.66-7.37c1.77-1.63,4.08-2.44,6.95-2.44c2.86,0,5.16,0.83,6.9,2.49
			c1.74,1.66,2.61,4.2,2.61,7.63v3.27h-16.99v3.31c0,2.72,0.62,4.69,1.85,5.91c1.23,1.22,3.09,1.83,5.59,1.83
			c2.24,0,3.85-0.33,4.84-1c0.99-0.66,1.78-1.75,2.38-3.25L453.72,93.63z M436.98,82.59v1.78h14.87v-1.4c0-2.86-0.62-4.95-1.87-6.27
			c-1.25-1.32-3.1-1.98-5.57-1.98c-2.46,0-4.32,0.64-5.57,1.91S436.98,79.9,436.98,82.59z"/>
		<path class="st0" d="M470.84,98.69h-2.34l-9.47-25.49h2.21l8.5,23.49l8.5-23.49h2.08L470.84,98.69z"/>
		<path class="st0" d="M490.72,67.67c-0.62,0-1.13-0.11-1.53-0.34c-0.4-0.23-0.59-0.64-0.59-1.23v-0.3c0-0.62,0.2-1.05,0.59-1.3
			c0.4-0.24,0.91-0.36,1.53-0.36c0.62,0,1.13,0.12,1.53,0.36c0.4,0.24,0.59,0.67,0.59,1.3v0.3c0,0.6-0.2,1.01-0.59,1.23
			C491.85,67.56,491.34,67.67,490.72,67.67z M489.66,98.69V73.2h2.12v25.49H489.66z"/>
		<path class="st0" d="M513.7,98.9c-2.27,0-4.04-0.86-5.33-2.59c-1.29-1.73-1.93-4.11-1.93-7.14V64.7h2.12v24.51
			c0,2.38,0.47,4.25,1.4,5.61c0.94,1.36,2.22,2.04,3.87,2.04c0.42,0,0.92-0.07,1.49-0.21c0.57-0.14,1.06-0.31,1.49-0.51l0.51,1.83
			c-0.51,0.25-1.07,0.47-1.68,0.66C515.03,98.81,514.38,98.9,513.7,98.9z"/>
		<path class="st0" d="M532.61,98.9c-2.27,0-4.04-0.86-5.33-2.59c-1.29-1.73-1.93-4.11-1.93-7.14V64.7h2.12v24.51
			c0,2.38,0.47,4.25,1.4,5.61c0.94,1.36,2.22,2.04,3.87,2.04c0.42,0,0.92-0.07,1.49-0.21c0.57-0.14,1.06-0.31,1.49-0.51l0.51,1.83
			c-0.51,0.25-1.07,0.47-1.68,0.66C533.93,98.81,533.29,98.9,532.61,98.9z"/>
		<path class="st0" d="M560.99,93.63c-0.71,1.95-1.77,3.36-3.19,4.21c-1.42,0.85-3.44,1.27-6.07,1.27c-3.03,0-5.39-0.81-7.07-2.44
			c-1.68-1.63-2.53-4.04-2.53-7.24v-6.84c0-3.29,0.88-5.74,2.66-7.37c1.77-1.63,4.08-2.44,6.95-2.44c2.86,0,5.16,0.83,6.9,2.49
			c1.74,1.66,2.61,4.2,2.61,7.63v3.27h-16.99v3.31c0,2.72,0.62,4.69,1.85,5.91c1.23,1.22,3.09,1.83,5.59,1.83
			c2.24,0,3.85-0.33,4.84-1c0.99-0.66,1.78-1.75,2.38-3.25L560.99,93.63z M544.25,82.59v1.78h14.87v-1.4c0-2.86-0.62-4.95-1.87-6.27
			c-1.25-1.32-3.1-1.98-5.57-1.98c-2.46,0-4.32,0.64-5.57,1.91S544.25,79.9,544.25,82.59z"/>
		<path class="st0" d="M312.72,147.14c-4.28,0-7.43-1.08-9.47-3.25s-3.06-5.15-3.06-8.94v-10.28c0-3.85,0.96-6.88,2.87-9.07
			c1.91-2.19,5.01-3.29,9.28-3.29c3.88,0,6.67,0.77,8.37,2.32c1.7,1.54,2.65,4,2.85,7.37l-2.12,0.25c-0.23-2.75-0.91-4.77-2.04-6.07
			c-1.13-1.3-3.5-1.95-7.1-1.95c-3.46,0-5.98,0.83-7.58,2.49c-1.6,1.66-2.4,4.31-2.4,7.97v10.28c0,3.6,0.83,6.21,2.48,7.84
			c1.66,1.63,4.3,2.44,7.92,2.44c3.48,0,5.95-0.95,7.39-2.85c1.44-1.9,2.17-5.13,2.17-9.69h-10.41v-1.91h12.53v1.87
			c0,4.73-0.88,8.33-2.63,10.79C320.01,145.91,317,147.14,312.72,147.14z"/>
		<path class="st0" d="M331.84,146.72v-25.49h2.12v4.25h0.42c1.08-1.67,2.24-2.87,3.51-3.59c1.26-0.72,2.6-1.08,4.01-1.08
			c2.1,0,3.74,0.63,4.93,1.89c1.19,1.26,1.78,3.04,1.78,5.33v2.76h-2.12v-2.68c0-1.61-0.37-2.92-1.1-3.91
			c-0.74-0.99-1.9-1.49-3.48-1.49c-1.53,0-2.94,0.4-4.23,1.19c-1.29,0.79-2.53,2.03-3.72,3.7v19.12H331.84z"/>
		<path class="st0" d="M364.55,147.14c-3.09,0-5.45-0.83-7.09-2.49c-1.64-1.66-2.46-4.04-2.46-7.16v-6.88c0-3.17,0.83-5.6,2.49-7.29
			c1.66-1.68,4.03-2.53,7.12-2.53c3.06,0,5.41,0.84,7.05,2.53c1.64,1.69,2.46,4.11,2.46,7.29v6.88c0,3.12-0.82,5.5-2.46,7.16
			S367.64,147.14,364.55,147.14z M364.55,145.23c2.55,0,4.43-0.63,5.63-1.89c1.2-1.26,1.81-3.21,1.81-5.84v-6.88
			c0-2.69-0.6-4.68-1.81-5.97c-1.2-1.29-3.08-1.93-5.63-1.93c-2.55,0-4.43,0.64-5.63,1.93c-1.2,1.29-1.81,3.28-1.81,5.97v6.88
			c0,2.63,0.6,4.58,1.81,5.84C360.12,144.6,362,145.23,364.55,145.23z"/>
		<path class="st0" d="M390.42,147.14c-2.44,0-4.38-0.79-5.84-2.38c-1.46-1.59-2.19-3.7-2.19-6.33v-17.21h2.12v16.36
			c0,2.52,0.51,4.43,1.53,5.71c1.02,1.29,2.53,1.93,4.55,1.93c1.44,0,2.92-0.38,4.44-1.13c1.51-0.75,2.97-1.93,4.35-3.55v-19.33
			h2.12v25.49h-2.12v-4.25h-0.42c-1.1,1.59-2.36,2.76-3.76,3.53C393.8,146.76,392.21,147.14,390.42,147.14z"/>
		<path class="st0" d="M419.01,147.14c-0.96,0-2.08-0.14-3.36-0.42c-1.28-0.28-2.52-0.68-3.74-1.19v9.69h-2.12v-33.99h2.12v4.25
			h0.42c0.74-1.53,1.88-2.69,3.42-3.48c1.54-0.79,3.24-1.19,5.08-1.19c2.52,0,4.5,0.86,5.93,2.57c1.43,1.71,2.15,4.09,2.15,7.12
			v6.92c0,3.03-0.88,5.41-2.63,7.14C424.52,146.28,422.1,147.14,419.01,147.14z M418.97,145.32c2.66,0,4.63-0.65,5.9-1.95
			c1.27-1.3,1.91-3.31,1.91-6.03v-6.88c0-2.63-0.5-4.58-1.51-5.84c-1.01-1.26-2.56-1.89-4.65-1.89c-1.67,0-3.21,0.38-4.63,1.13
			c-1.42,0.75-2.78,1.93-4.08,3.55v15.89c1.13,0.65,2.28,1.15,3.44,1.51C416.52,145.14,417.72,145.32,418.97,145.32z"/>
	</g>
</g>
</svg>
